#!OML:ASF H:\ManfredETheater\Project 1\Capture day 1\Session 1\subject.ASF
:FULLY-SPECIFIED
:DEGREES
255
root -9.02059 17.5773 -25.791 -165.547 -32.0392 -180.42
lowerback 7.63618 -0.232175 -2.05141
upperback -2.62244 -0.474874 0.866621
thorax -7.0188 -0.124231 2.12867
lowerneck -14.4681 -4.195 -5.69021
upperneck 8.17774 -5.18974 5.63748
head 5.10976 -2.35284 2.23111
rclavicle -6.20954e-014 6.95746e-016
rhumerus -44.6902 8.10771 -92.9975
rradius 60.9828
rwrist -3.59254
rhand -26.6748 1.69503
rfingers 7.12502
rthumb -0.106037 -28.2847
lclavicle -6.20954e-014 6.95746e-016
lhumerus -43.1164 -3.07159 92.5486
lradius 52.7177
lwrist -7.50289
lhand -23.662 -6.47021
lfingers 7.12502
lthumb 2.80378 23.4911
rfemur -17.1178 -0.255116 19.0096
rtibia 36.2496
rfoot -28.4921 -7.8635
rtoes -29.4082
lfemur -22.5905 -6.74345 -21.1376
ltibia 43.2733
lfoot -31.2998 4.70848
ltoes 8.85302
256
root -9.05939 17.5467 -25.847 -165.327 -31.8334 -180.481
lowerback 7.73454 -0.213855 -2.03845
upperback -2.64117 -0.450001 0.882464
thorax -7.09672 -0.110958 2.13601
lowerneck -14.4397 -4.1237 -5.61307
upperneck 8.0812 -5.09656 5.55472
head 5.0653 -2.31131 2.20226
rclavicle -3.90612e-014 -1.51076e-014
rhumerus -44.8616 8.31941 -92.8263
rradius 61.1146
rwrist -3.68077
rhand -26.6272 1.65793
rfingers 7.12502
rthumb -0.059982 -28.3218
lclavicle -3.90612e-014 -1.51076e-014
lhumerus -43.2139 -3.41814 93.0589
lradius 54.1593
lwrist -6.81421
lhand -23.7464 -6.33923
lfingers 7.12502
lthumb 2.7223 23.6231
rfemur -17.4717 -0.490223 18.8789
rtibia 37.0343
rfoot -28.8498 -7.57475
rtoes -30.0731
lfemur -22.4704 -6.76531 -21.2902
ltibia 43.2871
lfoot -31.825 5.09804
ltoes 8.98758
257
root -9.09767 17.5159 -25.9032 -165.067 -31.6397 -180.626
lowerback 7.85573 -0.207719 -2.11234
upperback -2.65531 -0.451933 0.88118
thorax -7.18131 -0.107137 2.17813
lowerneck -14.4249 -4.05062 -5.53094
upperneck 7.97473 -5.00465 5.49861
head 5.02087 -2.26848 2.18064
rclavicle -9.34288e-015 -6.36111e-015
rhumerus -44.9948 8.47458 -92.6313
rradius 61.232
rwrist -3.74771
rhand -26.5728 1.63117
rfingers 7.12502
rthumb -0.0075269 -28.3486
lclavicle -9.34288e-015 -6.36111e-015
lhumerus -43.2947 -3.75369 93.5478
lradius 55.5932
lwrist -6.12125
lhand -23.8378 -6.24357
lfingers 7.12502
lthumb 2.63399 23.7199
rfemur -17.9151 -0.724597 18.6752
rtibia 38.0051
rfoot -29.1521 -7.31613
rtoes -30.8133
lfemur -22.3598 -6.78073 -21.5109
ltibia 43.3096
lfoot -32.2983 5.41986
ltoes 9.06788
258
root -9.13543 17.4851 -25.9601 -164.77 -31.4554 -180.851
lowerback 7.99232 -0.213143 -2.26947
upperback -2.6586 -0.479759 0.861857
thorax -7.26159 -0.112597 2.25191
lowerneck -14.4296 -3.97684 -5.44397
upperneck 7.85401 -4.91521 5.47093
head 4.97614 -2.22484 2.16662
rclavicle 5.18331e-014 1.82882e-014
rhumerus -45.0812 8.55439 -92.4092
rradius 61.3344
rwrist -3.80554
rhand -26.4955 1.60852
rfingers 7.12502
rthumb 0.0671776 -28.3712
lclavicle 5.18331e-014 1.82882e-014
lhumerus -43.3425 -4.0823 94.0114
lradius 56.9992
lwrist -5.42218
lhand -23.9406 -6.20987
lfingers 7.12502
lthumb 2.53468 23.7548
rfemur -18.4575 -0.956875 18.4009
rtibia 39.1796
rfoot -29.3811 -7.07738
rtoes -31.6193
lfemur -22.2543 -6.79145 -21.7958
ltibia 43.3319
lfoot -32.718 5.67098
ltoes 9.09383
259
root -9.17236 17.4548 -26.0172 -164.439 -31.2654 -181.143
lowerback 8.14719 -0.222636 -2.50277
upperback -2.65423 -0.523276 0.826551
thorax -7.34301 -0.122467 2.35428
lowerneck -14.4419 -3.90516 -5.35031
upperneck 7.71204 -4.83157 5.46274
head 4.92687 -2.18282 2.15702
rclavicle 4.44284e-014 -3.77691e-015
rhumerus -45.1241 8.53907 -92.1544
rradius 61.4166
rwrist -3.85414
rhand -26.3907 1.58396
rfingers 7.12502
rthumb 0.168409 -28.3957
lclavicle 4.44284e-014 -3.77691e-015
lhumerus -43.3516 -4.40886 94.4525
lradius 58.3556
lwrist -4.71034
lhand -24.0472 -6.24928
lfingers 7.12502
lthumb 2.43182 23.7166
rfemur -19.1183 -1.16358 18.0651
rtibia 40.571
rfoot -29.5132 -6.83973
rtoes -32.4698
lfemur -22.1557 -6.78684 -22.1346
ltibia 43.3449
lfoot -33.0822 5.86078
ltoes 9.06358
260
root -9.20931 17.4248 -26.0753 -164.086 -31.0704 -181.495
lowerback 8.31539 -0.235619 -2.79482
upperback -2.64006 -0.580386 0.773823
thorax -7.42043 -0.136662 2.47363
lowerneck -14.4643 -3.835 -5.2554
upperneck 7.55772 -4.75239 5.47654
head 4.87632 -2.14173 2.15355
rclavicle 9.24349e-015 7.95139e-015
rhumerus -45.1317 8.41274 -91.8679
rradius 61.4739
rwrist -3.89398
rhand -26.2701 1.54367
rfingers 7.12502
rthumb 0.284893 -28.4359
lclavicle 9.24349e-015 7.95139e-015
lhumerus -43.3204 -4.74546 94.8723
lradius 59.6462
lwrist -3.9829
lhand -24.1558 -6.32979
lfingers 7.12502
lthumb 2.32687 23.6373
rfemur -19.8895 -1.37762 17.6735
rtibia 42.1845
rfoot -29.5292 -6.58608
rtoes -33.4273
lfemur -22.0463 -6.76775 -22.5253
ltibia 43.3417
lfoot -33.4036 5.99625
ltoes 9.00009
